<svg width="91" height="17" viewBox="0 0 91 17" fill="none" xmlns="http://www.w3.org/2000/svg">
<path d="M0.2 13V1.096H3.392L3.848 2.68C4.12 2.232 4.568 1.8 5.192 1.384C5.816 0.967999 6.568 0.759999 7.448 0.759999C8.392 0.759999 9.144 0.927999 9.704 1.264C10.28 1.6 10.704 2.096 10.976 2.752C11.44 2.096 12.024 1.6 12.728 1.264C13.448 0.927999 14.224 0.759999 15.056 0.759999C16.576 0.759999 17.624 1.192 18.2 2.056C18.776 2.904 19.064 4.136 19.064 5.752V13H15.416V6.664C15.416 6.104 15.384 5.592 15.32 5.128C15.256 4.664 15.096 4.296 14.84 4.024C14.584 3.736 14.16 3.592 13.568 3.592C12.832 3.592 12.296 3.856 11.96 4.384C11.624 4.896 11.456 5.672 11.456 6.712V13H7.784V6.664C7.784 6.104 7.752 5.592 7.688 5.128C7.64 4.664 7.488 4.296 7.232 4.024C6.992 3.736 6.584 3.592 6.008 3.592C5.256 3.592 4.704 3.864 4.352 4.408C4.016 4.952 3.848 5.744 3.848 6.784V13H0.2ZM27.1743 13.288C25.8943 13.288 24.7583 13.04 23.7663 12.544C22.7903 12.032 22.0223 11.304 21.4623 10.36C20.9183 9.416 20.6463 8.288 20.6463 6.976C20.6463 5.712 20.9343 4.616 21.5103 3.688C22.1023 2.76 22.8783 2.04 23.8383 1.528C24.8143 1.016 25.8783 0.759999 27.0303 0.759999C28.3423 0.759999 29.4623 1.072 30.3903 1.696C31.3343 2.304 32.0463 3.152 32.5263 4.24C33.0063 5.312 33.2063 6.552 33.1263 7.96H24.3183C24.3823 8.792 24.6863 9.416 25.2303 9.832C25.7903 10.248 26.4063 10.456 27.0783 10.456C27.6383 10.456 28.1183 10.376 28.5183 10.216C28.9343 10.04 29.2543 9.824 29.4783 9.568L32.3823 10.624C31.7583 11.536 30.9743 12.208 30.0303 12.64C29.1023 13.072 28.1503 13.288 27.1743 13.288ZM24.3183 5.8H29.7423C29.7263 5.032 29.4623 4.456 28.9503 4.072C28.4383 3.672 27.8303 3.472 27.1263 3.472C26.4383 3.472 25.8223 3.656 25.2783 4.024C24.7503 4.392 24.4303 4.984 24.3183 5.8ZM34.8641 13V1.096H38.0561L38.5121 2.68C38.7841 2.232 39.2321 1.8 39.8561 1.384C40.4801 0.967999 41.2321 0.759999 42.1121 0.759999C43.0561 0.759999 43.8081 0.927999 44.3681 1.264C44.9441 1.6 45.3681 2.096 45.6401 2.752C46.1041 2.096 46.6881 1.6 47.3921 1.264C48.1121 0.927999 48.8881 0.759999 49.7201 0.759999C51.2401 0.759999 52.2881 1.192 52.8641 2.056C53.4401 2.904 53.7281 4.136 53.7281 5.752V13H50.0801V6.664C50.0801 6.104 50.0481 5.592 49.9841 5.128C49.9201 4.664 49.7601 4.296 49.5041 4.024C49.2481 3.736 48.8241 3.592 48.2321 3.592C47.4961 3.592 46.9601 3.856 46.6241 4.384C46.2881 4.896 46.1201 5.672 46.1201 6.712V13H42.4481V6.664C42.4481 6.104 42.4161 5.592 42.3521 5.128C42.3041 4.664 42.1521 4.296 41.8961 4.024C41.6561 3.736 41.2481 3.592 40.6721 3.592C39.9201 3.592 39.3681 3.864 39.0161 4.408C38.6801 4.952 38.5121 5.744 38.5121 6.784V13H34.8641ZM61.6224 13.288C60.5184 13.288 59.4864 13.064 58.5264 12.616C57.5664 12.168 56.7904 11.48 56.1984 10.552C55.6064 9.608 55.3104 8.424 55.3104 7C55.3104 5.56 55.6064 4.384 56.1984 3.472C56.7904 2.544 57.5664 1.864 58.5264 1.432C59.4864 0.983999 60.5184 0.759999 61.6224 0.759999C62.7104 0.759999 63.7344 0.983999 64.6944 1.432C65.6544 1.864 66.4304 2.544 67.0224 3.472C67.6144 4.384 67.9104 5.56 67.9104 7C67.9104 8.424 67.6144 9.608 67.0224 10.552C66.4304 11.48 65.6544 12.168 64.6944 12.616C63.7344 13.064 62.7104 13.288 61.6224 13.288ZM61.6224 10.456C62.3584 10.456 62.9664 10.192 63.4464 9.664C63.9424 9.136 64.1904 8.248 64.1904 7C64.1904 5.736 63.9344 4.856 63.4224 4.36C62.9264 3.848 62.3264 3.592 61.6224 3.592C60.9024 3.592 60.2864 3.848 59.7744 4.36C59.2784 4.856 59.0304 5.736 59.0304 7C59.0304 8.248 59.2784 9.136 59.7744 9.664C60.2704 10.192 60.8864 10.456 61.6224 10.456ZM69.6922 13V1.096H72.5722L73.2202 3.28C73.5882 2.32 74.0922 1.648 74.7322 1.264C75.3722 0.88 76.1482 0.711999 77.0602 0.759999V4.408C76.8682 4.376 76.7002 4.36 76.5562 4.36C76.4122 4.344 76.2522 4.336 76.0762 4.336C75.1962 4.336 74.5162 4.544 74.0362 4.96C73.5722 5.376 73.3402 6.056 73.3402 7V13H69.6922ZM79.6147 16.864V14.224H80.3347C80.8787 14.224 81.2867 14.2 81.5587 14.152C81.8307 14.104 82.0387 13.984 82.1827 13.792C82.3427 13.616 82.4867 13.328 82.6147 12.928L78.0547 1.096H81.9667L84.2947 8.536L86.5747 1.096H90.4867L85.9267 13C85.5427 14.008 85.1507 14.792 84.7507 15.352C84.3667 15.912 83.8707 16.304 83.2627 16.528C82.6547 16.752 81.8307 16.864 80.7907 16.864H79.6147Z" fill="#152938"/>
</svg>
